<?xml version="1.0" encoding="UTF-8" standalone="no"?>
<!DOCTYPE svg PUBLIC "-//W3C//DTD SVG 1.0//EN" "http://www.w3.org/TR/2001/REC-SVG-20010904/DTD/svg10.dtd">
<!-- Created with Inkscape (http://www.inkscape.org/) -->
<svg
   xmlns:svg="http://www.w3.org/2000/svg"
   xmlns="http://www.w3.org/2000/svg"
   version="1.0"
   width="800"
   height="550"
   id="svg2">
  <defs
     id="defs4" />
  <g
     id="layer1">
    <text
       x="282.14285"
       y="328.21429"
       id="text3277"
       xml:space="preserve"
       style="font-size:49.71629333px;font-style:normal;font-variant:normal;font-weight:normal;font-stretch:normal;text-align:start;line-height:100%;writing-mode:lr-tb;text-anchor:start;fill:#000000;fill-opacity:1;stroke:none;stroke-width:1px;stroke-linecap:butt;stroke-linejoin:miter;stroke-opacity:1;font-family:Univers Condensed;-inkscape-font-specification:'Univers Condensed,'"><tspan
         x="282.14285"
         y="328.21429"
         id="tspan3279" /></text>
    <text
       x="369.96838"
       y="145.53543"
       id="text3289"
       xml:space="preserve"
       style="font-size:49.71629333px;font-style:normal;font-variant:normal;font-weight:normal;font-stretch:normal;text-align:start;line-height:100%;writing-mode:lr-tb;text-anchor:start;fill:#000000;fill-opacity:1;stroke:none;stroke-width:1px;stroke-linecap:butt;stroke-linejoin:miter;stroke-opacity:1;font-family:Compacta Bd BT;-inkscape-font-specification:Compacta Bd BT"><tspan
         x="369.96838"
         y="145.53543"
         id="tspan3291" /></text>
    <path
       d="M 12.704006,460.95247 L 19.322281,460.95247 L 19.322281,491.40284 C 19.322281,496.77451 20.267684,500.64097 22.158718,503.00223 C 24.0496,505.3635 27.114188,506.54413 31.352557,506.54413 C 35.56901,506.54413 38.622715,505.3635 40.513673,503.00223 C 42.404555,500.64097 43.350034,496.77451 43.35011,491.40284 L 43.35011,460.95247 L 49.96831,460.95247 L 49.96831,492.24216 C 49.968234,498.77764 48.39789,503.71287 45.257277,507.04776 C 42.116512,510.38266 37.481657,512.05004 31.352557,512.05004 C 25.201465,512.05004 20.555727,510.38266 17.415114,507.04776 C 14.274426,503.71287 12.704006,498.77764 12.704006,492.24216 L 12.704006,460.95247 z M 103.27349,460.95247 L 112.14124,460.95247 L 133.72386,502.88473 L 133.72386,460.95247 L 140.11391,460.95247 L 140.11391,511.07648 L 131.24601,511.07648 L 109.66346,469.14421 L 109.66346,511.07648 L 103.27349,511.07648 L 103.27349,460.95247 z M 195.08784,460.95247 L 201.67339,460.95247 L 201.67339,511.07648 L 195.08784,511.07648 L 195.08784,460.95247 z M 270.15083,511.07648 L 251.56757,460.95247 L 258.44657,460.95247 L 273.86737,503.1533 L 289.32075,460.95247 L 296.16725,460.95247 L 277.61664,511.07648 L 270.15083,511.07648 z M 344.15822,460.95247 L 374.93469,460.95247 L 374.93469,466.65982 L 350.74378,466.65982 L 350.74378,481.49891 L 373.92392,481.49891 L 373.92392,487.20633 L 350.74378,487.20633 L 350.74378,505.36913 L 375.5215,505.36913 L 375.5215,511.07648 L 344.15822,511.07648 L 344.15822,460.95247 z M 452.31229,487.57557 C 453.72511,488.06802 455.09987,489.11996 456.43651,490.7314 C 457.77322,492.34292 459.11527,494.55875 460.46294,497.37883 L 467.14628,511.07648 L 460.07163,511.07648 L 453.84466,498.21814 C 452.23634,494.86087 450.67673,492.63393 449.16628,491.53716 C 447.6556,490.44055 445.5963,489.89209 442.98809,489.89209 L 435.81565,489.89209 L 435.81565,511.07648 L 429.23002,511.07648 L 429.23002,460.95247 L 444.09658,460.95247 C 449.66071,460.95247 453.81202,462.15 456.55066,464.54474 C 459.28916,466.93964 460.65844,470.55429 460.65852,475.38868 C 460.65844,478.54459 459.94667,481.16322 458.52305,483.24474 C 457.09943,485.32625 455.02917,486.76989 452.31229,487.57557 L 452.31229,487.57557 z M 435.81565,466.52558 L 435.81565,484.31906 L 444.09658,484.31906 C 447.26992,484.31906 449.66611,483.56368 451.28546,482.05292 C 452.90451,480.54216 453.71423,478.3207 453.71423,475.38868 C 453.71423,472.45674 452.90451,470.24653 451.28546,468.75807 C 449.66611,467.26977 447.26992,466.52558 444.09658,466.52558 L 435.81565,466.52558 z M 546.7022,462.59747 L 546.7022,469.21133 C 544.20259,467.98032 541.84452,467.0627 539.62755,466.45838 C 537.41057,465.85414 535.26977,465.55194 533.20493,465.55186 C 529.61867,465.55194 526.85293,466.26813 524.90779,467.70057 C 522.96242,469.13302 521.98977,471.16979 521.98977,473.8108 C 521.98977,476.02663 522.6364,477.69971 523.92966,478.82989 C 525.22277,479.96022 527.67352,480.87229 531.28132,481.5661 L 535.25889,482.40534 C 540.17091,483.36787 543.79514,485.06325 546.13175,487.49163 C 548.46812,489.92009 549.63635,493.17113 549.63635,497.24451 C 549.63635,502.10135 548.05512,505.78319 544.89275,508.28996 C 541.73045,510.79673 537.09551,512.05004 530.98803,512.05004 C 528.68407,512.05004 526.23354,511.78148 523.63621,511.24435 C 521.03896,510.70716 518.34925,509.91259 515.56722,508.86064 L 515.56722,501.87754 C 518.2405,503.42193 520.85967,504.58574 523.42427,505.36913 C 525.98895,506.15251 528.51025,506.54413 530.98803,506.54413 C 534.74818,506.54413 537.64961,505.78319 539.69277,504.26125 C 541.73577,502.73923 542.75735,500.56822 542.75735,497.74815 C 542.75735,495.28613 542.02382,493.3613 540.55674,491.9736 C 539.08959,490.58597 536.68244,489.54522 533.33536,488.8514 L 529.32537,488.04565 C 524.41328,487.03845 520.85967,485.46057 518.66438,483.31186 C 516.46917,481.16322 515.37157,478.17527 515.37157,474.348 C 515.37157,469.91641 516.88758,466.42482 519.91959,463.8733 C 522.95161,461.32179 527.13009,460.04603 532.4551,460.04603 C 534.73722,460.04603 537.06279,460.25866 539.43197,460.68391 C 541.80099,461.10916 544.22435,461.74704 546.7022,462.59747 L 546.7022,462.59747 z M 601.77399,460.95247 L 608.3597,460.95247 L 608.3597,511.07648 L 601.77399,511.07648 L 601.77399,460.95247 z M 655.63341,460.95247 L 696.80992,460.95247 L 696.80992,466.65982 L 679.53081,466.65982 L 679.53081,511.07648 L 672.91253,511.07648 L 672.91253,466.65982 L 655.63341,466.65982 L 655.63341,460.95247 z M 742.1906,460.95247 L 749.26525,460.95247 L 762.76245,481.5661 L 776.16193,460.95247 L 783.23659,460.95247 L 766.02269,487.20633 L 766.02269,511.07648 L 759.40449,511.07648 L 759.40449,487.20633 L 742.1906,460.95247 z"
       id="text3372"
       style="font-size:8.86020374px;font-style:normal;font-variant:normal;font-weight:normal;font-stretch:normal;text-align:start;line-height:100%;writing-mode:lr-tb;text-anchor:start;fill:#003573;fill-opacity:1;stroke:none;stroke-width:1px;stroke-linecap:butt;stroke-linejoin:miter;stroke-opacity:1;font-family:DejaVu Sans;-inkscape-font-specification:DejaVu Sans" />
    <path
       d="M 23.673357,389.70754 C 25.595135,382.0202 108.23429,22.635959 108.23429,22.635959 L 194.71715,22.635959 L 281.20001,389.70754 L 190.87344,389.70754 L 181.26424,330.1305 L 123.60905,330.1305 L 110.15614,389.70754 L 23.673357,389.70754 z M 308.10575,22.635959 L 308.10575,324.36493 L 367.6828,389.70754 L 463.77485,389.70754 L 523.3519,324.36493 L 523.3519,22.635959 L 436.86904,22.635959 L 436.86904,305.14654 L 390.7449,305.14654 L 390.7449,22.635959 L 308.10575,22.635959 z M 561.78869,22.635959 L 561.78869,103.35327 L 630.97501,103.35327 L 630.97501,389.70754 L 711.69228,389.70754 L 711.69228,103.35327 L 775.11303,103.35327 L 775.11303,22.635959 L 561.78869,22.635959 z M 150.51479,145.63377 L 131.29639,259.02237 L 169.73319,259.02237 L 150.51479,145.63377 z"
       id="path3376"
       style="fill:#ffffff;fill-rule:evenodd;stroke:#003573;stroke-width:15.22020149;stroke-linecap:butt;stroke-linejoin:miter;stroke-miterlimit:4;stroke-dasharray:none;stroke-opacity:1" />
    <path
       d="M 12.817244,433.41022 L 783.11894,433.41022"
       id="path3387"
       style="fill:#acb9c9;fill-opacity:1;fill-rule:evenodd;stroke:#acb9c9;stroke-width:7.66128588px;stroke-linecap:butt;stroke-linejoin:miter;stroke-opacity:1" />
    <path
       d="M 12.817244,532.56223 L 783.11894,532.56223"
       id="path3389"
       style="fill:none;fill-rule:evenodd;stroke:#acb9c9;stroke-width:7.66128588px;stroke-linecap:butt;stroke-linejoin:miter;stroke-opacity:1" />
  </g>
</svg>
